<svg xmlns="http://www.w3.org/2000/svg" width="40" height="40" fill="none" viewBox="0 0 40 40"><path fill="#000" d="m.766 37.624.902-6.806c2.241.164 3.936-.274 5.084-1.312 1.148-1.039 1.886-2.46 2.214-4.264.328-1.804.41-3.8.246-5.986H.766V.724h16.072v20.992c0 5.74-1.394 10.058-4.182 12.956-2.843 2.952-6.806 3.936-11.89 2.952Zm23.042 0 .902-6.806c2.241.164 3.936-.274 5.084-1.312 1.148-1.039 1.886-2.46 2.214-4.264.328-1.804.41-3.8.246-5.986h-8.446V.724H39.88v20.992c0 5.74-1.394 10.058-4.182 12.956-2.843 2.952-6.806 3.936-11.89 2.952Z"/></svg>